<svg width="48" height="48" viewBox="0 0 48 48" fill="none" xmlns="http://www.w3.org/2000/svg">
<path d="M43.5 24C43.5007 27.3666 42.6298 30.6761 40.9721 33.6063C39.3143 36.5365 36.9262 38.9875 34.0401 40.7209C31.154 42.4543 27.8683 43.411 24.5028 43.4978C21.1373 43.5846 17.8066 42.7986 14.835 41.2162L8.45062 43.3444C7.92204 43.5206 7.3548 43.5462 6.81249 43.4183C6.27018 43.2903 5.77423 43.0138 5.38022 42.6198C4.98622 42.2258 4.70973 41.7298 4.58175 41.1875C4.45376 40.6452 4.47935 40.078 4.65562 39.5494L6.78375 33.165C5.39278 30.5498 4.61587 27.6521 4.512 24.6918C4.40812 21.7315 4.98001 18.7865 6.18426 16.0802C7.3885 13.374 9.19345 10.9776 11.4621 9.07311C13.7307 7.16857 16.4035 5.80589 19.2774 5.08851C22.1513 4.37113 25.1509 4.31791 28.0484 4.93288C30.946 5.54784 33.6654 6.81484 36.0002 8.63769C38.3349 10.4605 40.2238 12.7913 41.5233 15.4532C42.8228 18.115 43.4988 21.0379 43.5 24Z" fill="white"/>
<path d="M22.975 28.8749C22.9754 27.9843 22.6669 27.121 22.1022 26.4323C21.5375 25.7435 20.7514 25.2718 19.8779 25.0976C19.0044 24.9234 18.0975 25.0575 17.3117 25.477C16.526 25.8965 15.91 26.5755 15.5688 27.3982C15.2275 28.221 15.1821 29.1366 15.4402 29.9891C15.6984 30.8416 16.2441 31.5782 16.9845 32.0734C17.7248 32.5686 18.614 32.7918 19.5005 32.7049C20.3868 32.6181 21.2157 32.2266 21.8458 31.5972C22.2048 31.2407 22.4894 30.8165 22.6832 30.3492C22.8771 29.8819 22.9762 29.3808 22.975 28.8749ZM22.975 28.8749C22.975 28.8749 22.975 28.8748 22.975 28.8748L22.875 28.875L22.975 28.8751C22.975 28.875 22.975 28.875 22.975 28.8749ZM28.8753 15.275C29.7659 15.2751 30.6289 15.584 31.3173 16.149C32.0058 16.714 32.4771 17.5003 32.6509 18.3739C32.8247 19.2475 32.6902 20.1543 32.2703 20.9398C31.8505 21.7253 31.1713 22.341 30.3484 22.6819C29.5255 23.0228 28.6099 23.0678 27.7576 22.8093C26.9052 22.5508 26.1688 22.0048 25.6739 21.2643C25.179 20.5238 24.9562 19.6346 25.0434 18.7481C25.1305 17.8618 25.5223 17.0332 26.1519 16.4033C26.5086 16.0443 26.933 15.7598 27.4005 15.5661C27.868 15.3724 28.3693 15.2735 28.8753 15.275ZM28.8753 15.275L28.875 15.375M28.8753 15.275L28.875 15.375M28.8753 15.275C28.8752 15.275 28.8751 15.275 28.875 15.275L28.875 15.375M28.8753 15.275L28.875 15.375M19.125 30.275L19.1247 30.275C18.9409 30.2756 18.7588 30.2396 18.589 30.1692C18.4193 30.0988 18.2651 29.9953 18.1357 29.8649L18.1354 29.8646C17.9065 29.6355 17.764 29.3341 17.7324 29.0118C17.7008 28.6894 17.7819 28.3661 17.9619 28.0968C18.142 27.8276 18.4098 27.6291 18.7198 27.5352C19.0298 27.4412 19.3628 27.4577 19.662 27.5818C19.9612 27.7059 20.2081 27.9299 20.3607 28.2156C20.5132 28.5013 20.562 28.8311 20.4987 29.1487C20.4354 29.4664 20.2638 29.7523 20.0134 29.9576C19.7629 30.163 19.449 30.2752 19.125 30.275ZM28.8746 17.725H28.875C29.1989 17.7251 29.5127 17.8374 29.763 18.0429C30.0134 18.2484 30.1847 18.5343 30.2479 18.852C30.311 19.1696 30.2621 19.4993 30.1095 19.785C29.9568 20.0706 29.7098 20.2944 29.4106 20.4184C29.1114 20.5424 28.7785 20.5588 28.4686 20.4648C28.1586 20.3708 27.8908 20.1723 27.7109 19.9031C27.5309 19.6338 27.4498 19.3105 27.4815 18.9882C27.5131 18.6659 27.6555 18.3645 27.8845 18.1354L27.8847 18.1352C28.0143 18.0046 28.1686 17.9011 28.3385 17.8307C28.5084 17.7603 28.6907 17.7244 28.8746 17.725ZM31.6148 29.8834L18.1148 16.3834C17.8847 16.1533 17.5726 16.024 17.2472 16.024C16.9218 16.024 16.6097 16.1533 16.3796 16.3834C16.1495 16.6135 16.0202 16.9256 16.0202 17.251C16.0202 17.5764 16.1495 17.8884 16.3796 18.1185L29.8796 31.6185C29.9935 31.7325 30.1288 31.8229 30.2777 31.8845C30.4265 31.9462 30.5861 31.9779 30.7472 31.9779C30.9083 31.9779 31.0679 31.9462 31.2167 31.8845C31.3656 31.8229 31.5008 31.7325 31.6148 31.6185C31.7287 31.5046 31.8191 31.3694 31.8807 31.2205C31.9424 31.0716 31.9741 30.9121 31.9741 30.751C31.9741 30.5898 31.9424 30.4303 31.8807 30.2814C31.8191 30.1326 31.7287 29.9973 31.6148 29.8834Z" fill="#F82E54" stroke="#F82E54" stroke-width="0.2"/>
</svg>
